P2
60 90
255
133 132 133 132 132 133 133 133 133 132 132 132 131 131 131 131 131 
131 131 131 131 130 130 130 129 130 130 130 130 130 129 129 129 
129 129 129 128 128 129 129 128 127 128 128 128 127 129 139 151 
165 179 195 209 222 231 240 243 243 242 243 134 134 134 134 133 133 134 133 133 133 132 132 132 132 132 131 132 
131 132 131 131 130 131 130 131 130 130 130 130 130 129 129 129 
130 130 130 129 128 129 128 129 129 128 128 128 128 128 138 150 
162 174 186 199 217 238 246 243 242 242 243 135 135 135 134 134 133 133 133 133 133 133 133 133 133 132 132 132 
131 132 131 131 131 133 134 131 133 133 131 130 130 130 132 135 
135 128 132 135 132 130 129 128 128 129 128 128 128 128 135 147 
159 170 187 219 242 239 233 240 240 243 243 135 135 135 134 134 134 133 133 133 133 133 133 133 133 132 132 132 
132 131 131 135 142 109 68 66 74 94 119 131 133 128 87 60 
56 61 61 71 94 126 130 129 129 129 128 128 128 128 132 143 
157 186 223 228 211 211 226 226 239 238 244 135 135 135 135 135 134 134 133 133 133 133 133 133 133 133 132 132 
132 131 145 129 87 61 55 58 59 58 64 94 103 50 73 88 
90 91 89 92 94 89 112 132 129 129 129 128 128 128 130 150 
187 203 189 183 191 207 208 219 235 229 241 136 135 135 135 135 134 134 134 133 133 134 133 133 133 133 134 135 
133 146 132 100 59 29 21 23 29 39 57 66 63 80 88 72 
58 50 50 50 54 68 90 114 132 131 130 129 129 133 151 167 
163 156 163 173 185 190 197 221 215 221 232 137 136 136 135 135 135 135 134 134 133 133 133 135 140 129 117 108 
119 139 83 45 33 23 27 28 28 27 23 32 56 70 51 51 
52 54 54 54 54 53 54 73 108 107 113 121 137 150 144 133 
137 146 156 165 173 180 191 208 198 209 222 136 136 136 136 135 135 134 134 135 134 135 143 126 91 82 94 114 
141 87 62 45 34 30 30 31 32 32 32 28 23 38 50 52 
56 51 46 46 51 57 62 61 70 98 81 78 77 88 125 138 
135 140 147 156 163 170 190 185 186 195 211 136 136 136 136 135 135 135 135 135 136 139 107 86 71 73 72 84 
109 83 69 52 36 28 31 34 33 31 31 31 22 35 46 32 
23 24 26 26 26 24 36 55 69 74 47 50 49 54 61 101 
142 135 139 147 154 163 175 170 175 180 200 137 136 136 136 136 135 135 135 137 143 111 71 45 43 50 64 86 
114 98 74 55 39 34 36 37 37 37 36 34 25 23 19 25 
28 30 31 31 30 31 30 28 44 72 58 75 88 96 104 97 
86 133 132 137 145 161 156 159 164 166 188 137 137 136 136 136 136 135 136 140 84 54 43 33 35 36 33 80 
121 94 71 55 40 38 39 39 40 42 41 40 32 8 25 28 
31 33 34 33 34 33 34 34 33 39 75 94 102 107 115 119 
116 97 139 146 156 168 175 164 155 154 175 137 137 137 136 136 136 136 143 101 75 58 46 39 41 42 35 72 
127 101 75 56 40 46 56 58 57 56 50 40 35 7 24 29 
32 33 33 33 33 33 33 36 38 32 48 96 106 108 113 114 
113 121 139 154 157 189 213 193 163 144 162 137 137 137 136 136 136 139 141 104 84 65 50 39 40 40 37 76 
143 112 97 90 75 74 76 76 75 77 82 82 60 8 27 34 
36 37 37 35 36 37 38 38 38 40 34 57 55 56 59 69 
88 128 133 152 159 199 229 199 160 145 148 137 138 137 137 136 135 164 138 110 81 64 51 46 47 47 44 60 
160 149 128 100 72 72 72 73 74 75 78 80 83 20 28 34 
37 39 39 38 38 39 40 41 41 40 34 44 62 65 66 67 
83 91 112 145 155 173 190 174 154 153 147 138 137 137 135 139 185 168 133 107 82 66 53 50 51 51 45 35 
189 152 124 100 72 73 72 73 74 75 77 78 79 23 29 35 
38 40 39 38 39 40 40 41 42 42 35 54 67 70 69 71 
92 98 95 116 151 155 155 153 152 153 149 138 138 136 147 209 188 161 139 118 95 69 58 64 71 72 66 43 
171 151 122 102 72 70 81 88 90 91 91 83 70 26 29 43 
49 52 52 48 47 43 38 41 43 42 36 27 35 37 41 53 
85 99 101 102 138 150 154 153 153 153 143 138 137 144 217 189 149 180 154 131 118 110 96 88 89 87 84 50 
137 152 129 127 119 124 123 123 124 125 128 131 132 59 55 63 
65 68 68 64 68 70 69 58 44 43 36 22 33 33 33 32 
49 88 133 149 155 156 154 155 153 154 138 139 135 192 164 131 137 199 165 159 137 112 90 87 89 88 85 55 
100 189 179 155 132 121 122 123 123 124 126 127 133 70 54 62 
63 65 66 66 65 68 71 74 78 62 33 26 34 34 34 35 
44 118 130 144 151 144 116 145 155 149 137 137 165 179 159 115 154 205 180 160 135 110 91 86 85 81 79 69 
120 210 176 153 132 122 122 123 123 125 126 127 132 74 52 61 
63 66 67 68 68 69 70 73 77 84 64 27 32 33 37 37 
55 113 129 132 150 146 137 98 148 133 137 137 192 171 142 80 155 209 182 159 141 111 88 94 113 129 138 125 
104 215 178 155 134 122 123 124 119 118 117 118 124 77 57 72 
77 78 74 69 62 65 70 75 77 81 69 33 37 37 34 35 
47 109 113 128 137 153 137 83 98 134 137 159 176 131 106 57 146 206 183 162 146 147 150 135 133 134 134 135 
96 189 184 158 128 104 95 92 94 96 96 97 98 75 97 108 
113 114 117 118 118 107 93 76 75 82 62 34 38 37 39 38 
38 98 110 112 110 155 134 114 77 134 138 169 154 132 114 63 129 203 181 182 195 167 148 132 133 135 135 138 
101 149 171 134 112 97 96 96 96 97 97 98 98 77 94 106 
111 113 113 114 114 117 121 128 114 94 48 35 39 39 39 39 
38 45 91 108 104 130 117 123 121 117 138 177 167 148 127 77 103 203 206 212 198 170 146 132 134 137 132 121 
77 93 176 140 116 98 97 97 97 97 98 98 97 80 96 106 
111 111 112 113 114 116 120 123 127 135 67 47 39 39 40 39 
39 40 43 41 41 94 111 125 127 125 138 193 179 151 122 83 72 214 234 220 201 175 149 135 124 112 107 109 
82 74 166 145 118 99 95 95 95 96 96 95 93 80 97 109 
113 113 113 115 115 118 120 123 126 132 64 65 68 57 44 39 
40 40 43 44 45 71 74 91 126 131 138 205 177 147 117 89 45 220 239 224 205 181 141 108 107 108 109 110 
96 67 130 148 121 96 87 93 105 113 123 132 140 107 68 78 
83 88 93 98 104 115 123 125 127 130 54 63 65 64 67 60 
45 41 43 44 52 70 75 80 88 130 139 204 174 146 119 95 60 179 240 228 201 165 134 110 106 107 108 108 
108 59 84 165 144 129 139 142 145 145 147 149 152 111 71 82 
89 90 91 90 90 91 97 109 118 115 56 62 64 66 65 66 
69 57 43 44 49 70 77 80 83 100 140 201 175 151 129 126 109 122 241 224 195 170 142 112 106 105 105 101 
116 112 140 186 171 156 140 142 142 143 145 147 151 110 71 84 
89 91 90 88 90 95 97 97 95 85 77 59 62 65 66 79 
86 78 60 43 31 32 56 83 83 82 139 198 166 160 160 144 121 78 221 218 205 180 149 116 102 98 112 143 
157 136 136 178 174 158 141 141 143 144 145 146 150 110 69 84 
87 89 88 88 91 95 97 98 94 94 112 113 84 60 84 104 
106 105 82 48 30 35 35 48 84 82 135 195 176 175 168 149 128 85 160 218 208 182 154 121 109 137 153 153 
153 146 132 167 178 154 147 141 142 143 143 143 148 116 82 89 
83 84 84 86 89 94 95 98 92 97 109 113 115 111 109 110 
107 111 86 56 31 35 37 38 55 84 140 191 187 183 171 155 131 138 136 217 207 180 168 177 164 151 150 151 
152 156 125 145 185 153 149 137 139 140 142 147 152 133 123 133 
138 131 123 117 107 92 91 95 86 104 110 111 112 131 154 154 
130 110 82 35 30 36 38 40 39 79 144 194 199 185 172 164 178 158 128 188 202 206 216 195 163 150 151 150 
152 154 128 137 173 153 156 139 141 142 145 145 150 132 120 130 
134 136 138 140 145 152 137 128 98 104 113 112 118 139 140 152 
151 97 71 26 32 33 39 40 41 76 143 204 198 191 174 204 189 158 137 147 228 233 219 209 172 148 151 150 
149 152 142 137 152 156 161 137 139 141 145 144 149 132 120 126 
133 134 137 138 143 148 151 158 108 81 96 112 121 139 140 146 
149 132 46 30 33 34 35 42 40 91 142 205 193 193 212 206 195 168 142 100 217 239 224 218 186 150 147 148 
152 153 151 130 139 156 164 136 137 140 142 143 147 131 119 128 
130 132 135 137 142 148 150 157 86 86 84 86 104 138 141 146 
148 140 33 30 33 35 37 39 41 105 142 203 188 212 223 206 195 176 139 106 143 241 230 221 202 157 149 151 
151 152 156 127 139 141 167 136 134 136 138 140 145 131 118 125 
128 130 134 137 142 146 149 149 74 86 86 87 86 93 131 139 
134 102 59 45 33 35 36 38 43 92 142 201 183 223 225 207 195 173 150 116 96 215 236 227 213 177 150 148 
151 150 154 134 137 135 152 139 130 135 141 145 148 135 121 129 
135 136 135 138 141 143 148 121 75 82 85 87 86 88 91 119 
129 67 63 69 44 34 36 38 41 87 142 196 172 217 225 208 191 170 160 130 102 140 241 230 219 190 156 148 
149 149 149 139 134 138 139 148 134 136 140 144 146 134 122 131 
137 138 139 141 142 148 153 125 95 77 85 86 86 88 91 93 
108 56 64 66 68 38 36 40 39 93 142 192 181 187 222 208 190 173 167 147 108 131 223 234 223 201 170 145 
147 146 150 154 128 138 136 155 134 133 138 144 146 132 123 130 
136 137 137 140 143 147 154 126 140 123 86 83 85 89 89 89 
86 60 64 65 69 61 34 40 35 107 142 186 191 172 207 210 201 179 164 157 162 153 174 241 224 214 181 148 
145 149 149 153 132 139 136 156 132 132 134 142 143 131 120 130 
133 136 137 137 143 147 144 130 137 140 141 107 81 87 89 88 
111 101 62 65 68 73 40 35 33 128 141 168 196 187 172 212 212 186 163 173 203 165 146 218 230 220 193 168 
145 148 149 150 136 135 134 154 131 129 124 135 137 127 112 122 
125 129 132 136 142 146 135 133 136 138 140 144 132 85 87 97 
111 115 91 65 68 71 63 41 44 144 141 145 196 195 179 177 208 200 181 206 203 189 154 168 240 223 202 174 
155 145 148 148 137 124 127 152 124 128 128 140 143 133 118 129 
132 137 132 130 136 141 126 134 134 142 149 146 147 138 88 109 
111 113 121 74 68 74 76 60 78 140 141 138 185 194 187 158 202 200 226 209 200 199 174 147 215 228 208 180 
170 149 144 139 146 122 133 156 130 132 128 137 142 133 118 127 
133 136 134 136 142 147 123 131 149 154 156 157 161 161 100 109 
111 114 118 112 67 72 75 65 113 138 141 140 161 189 188 188 197 211 239 218 204 196 193 166 164 237 216 186 
173 162 134 143 148 129 134 154 135 135 126 134 141 134 120 125 
135 136 133 135 144 140 130 147 149 151 155 156 162 154 79 87 
114 116 116 123 84 97 75 74 142 136 140 141 139 184 185 212 211 201 239 235 210 198 193 183 158 203 227 196 
170 174 158 143 146 135 130 139 150 135 128 131 141 135 121 130 
137 139 131 135 146 133 138 153 154 154 149 157 164 123 100 83 
99 114 115 122 110 116 73 112 138 136 141 141 141 156 179 221 220 200 218 239 226 203 195 190 174 161 235 214 
173 168 173 144 144 145 126 132 154 132 126 122 139 131 121 124 
135 135 127 138 146 126 141 152 156 154 155 155 148 109 103 84 
83 108 119 119 122 120 78 140 136 136 141 141 142 139 165 223 222 207 178 232 236 217 196 189 183 160 202 221 
179 162 175 161 141 145 125 129 151 133 127 118 141 130 121 129 
138 132 126 138 139 127 138 154 156 154 158 162 139 109 97 83 
82 90 116 100 126 113 118 137 136 136 141 142 142 141 140 206 220 211 198 180 235 231 209 194 181 178 169 220 
201 155 170 184 139 141 131 129 150 133 129 116 137 128 120 129 
137 127 129 138 132 131 132 155 156 155 161 158 155 129 87 80 
79 93 88 98 126 121 139 136 136 136 141 142 142 142 140 151 216 208 207 190 195 237 221 206 192 184 173 190 
214 164 150 189 159 138 133 127 151 132 129 116 130 127 120 128 
134 125 126 136 126 132 136 140 150 157 163 153 155 145 82 76 
79 81 85 96 129 137 137 136 136 136 142 143 142 142 142 138 167 208 205 199 216 224 228 211 208 185 184 169 
214 193 136 171 190 134 139 121 148 131 130 117 129 129 126 134 
134 123 122 136 122 130 138 136 136 150 149 147 142 140 126 70 
115 97 84 100 136 137 136 136 136 136 141 143 142 142 142 141 137 178 205 196 231 219 229 219 207 201 183 181 
187 217 146 144 190 157 136 126 146 131 92 59 47 25 30 57 
69 87 123 130 128 130 136 134 136 146 135 140 139 142 143 99 
155 106 81 119 138 136 136 136 136 136 141 143 143 143 142 141 141 137 180 201 235 233 221 231 199 209 197 183 
176 204 182 131 168 199 127 63 38 46 26 21 23 28 31 34 
32 26 27 36 98 144 146 139 143 139 138 139 143 139 142 142 
153 104 100 140 137 137 136 136 136 137 141 143 143 143 142 141 141 141 137 181 236 234 228 226 225 186 222 190 
182 180 215 139 136 173 77 27 27 48 29 22 20 27 30 34 
32 27 38 51 73 121 172 174 168 146 139 140 142 140 142 146 
154 106 139 137 136 136 136 136 136 137 142 143 143 143 142 141 142 141 140 136 205 237 229 231 238 209 182 223 
181 178 204 149 34 92 137 31 26 47 29 23 19 26 31 34 
27 37 72 78 102 125 145 187 186 172 150 142 138 145 143 149 
148 135 138 137 136 136 136 136 136 137 142 143 143 143 142 142 142 141 141 140 140 213 232 231 237 237 190 184 
216 180 135 156 33 45 144 74 23 41 27 23 18 27 32 33 
23 61 73 81 112 141 168 172 187 179 163 139 145 148 145 148 
138 137 137 137 137 136 136 136 137 136 142 143 143 143 142 142 142 141 141 140 139 151 225 234 234 233 207 173 
201 182 86 132 94 26 106 130 33 40 15 8 4 6 3 6 
28 62 75 82 111 140 167 173 152 180 162 152 147 149 145 138 
137 137 137 137 137 136 136 136 137 137 141 144 143 143 143 142 142 142 142 140 140 138 169 222 236 234 200 185 
167 154 115 89 161 25 74 142 46 21 1 1 1 5 1 3 
43 47 54 69 100 124 144 146 127 156 159 162 151 147 138 137 
137 138 137 137 137 137 137 136 137 137 142 144 144 143 143 143 142 142 142 141 141 141 137 172 217 230 224 143 
132 77 169 103 126 81 32 76 85 24 3 1 1 7 1 3 
46 51 48 47 63 98 117 114 103 96 164 163 150 138 137 137 
137 138 137 137 137 137 137 137 137 137 142 144 144 144 143 143 142 142 142 141 142 141 141 137 166 213 226 155 
124 82 104 170 87 108 14 61 98 30 17 1 1 6 1 1 
39 52 48 48 47 62 83 84 76 97 165 164 139 137 137 138 
138 136 136 137 137 137 137 136 136 137 142 144 144 144 143 143 142 142 142 142 141 141 140 140 138 151 216 210 
176 157 57 144 140 79 48 54 78 70 17 1 2 5 3 4 
32 52 48 48 49 54 62 73 75 95 166 159 138 138 137 137 
138 136 137 137 137 137 137 137 137 137 142 144 145 144 144 143 143 142 142 142 142 142 141 141 141 139 141 198 
186 167 153 51 131 116 80 43 71 90 39 51 71 31 129 160 
79 49 48 47 54 50 50 73 75 137 165 154 137 138 137 137 
138 138 138 137 137 137 137 137 137 137 142 144 144 144 143 143 143 142 142 142 141 142 141 141 141 141 140 136 
166 170 166 118 86 122 112 54 74 96 64 7 1 2 3 33 
17 69 62 50 53 49 51 72 113 167 160 141 138 138 138 137 
138 137 137 137 137 137 137 137 137 137 142 144 144 144 143 143 142 143 142 142 142 141 141 141 141 141 141 141 
139 153 176 134 88 141 119 83 78 45 89 6 1 3 2 1 
2 4 79 93 62 50 53 103 168 157 140 138 138 138 137 137 
137 137 138 137 137 137 137 136 137 137 143 145 144 144 143 143 143 142 142 142 142 142 141 141 141 141 141 141 
141 140 144 144 137 106 135 74 35 40 85 52 1 4 3 2 
3 16 124 178 134 60 95 165 153 138 138 138 138 138 137 138 
137 137 137 137 137 137 137 137 137 137 142 145 145 144 144 143 143 143 142 142 142 142 142 142 142 141 141 141 
141 141 141 141 143 136 148 81 91 18 65 91 1 4 2 3 
3 72 180 168 133 108 147 141 139 138 138 138 138 138 138 138 
137 137 137 137 137 137 137 137 137 138 143 145 145 144 143 143 143 143 142 142 142 142 141 142 142 142 141 141 
140 140 140 140 141 142 97 114 147 27 49 109 7 4 2 3 
36 140 109 103 136 160 140 139 138 138 138 138 137 138 138 138 
138 137 137 137 138 137 137 137 137 138 143 145 144 144 144 144 143 142 142 142 142 142 142 142 141 141 141 141 
141 141 140 141 140 143 131 117 128 99 42 84 21 3 2 9 
67 31 34 117 160 140 139 138 138 138 138 138 138 138 138 138 
138 137 137 137 137 137 137 137 137 138 143 145 145 144 144 144 144 143 143 142 142 142 142 142 141 141 141 140 
140 141 140 140 140 140 140 163 118 131 87 54 13 2 8 32 
19 31 110 146 140 139 139 138 138 138 138 138 138 138 138 138 
137 137 137 138 137 137 137 137 137 138 143 145 145 144 144 143 143 142 143 142 142 142 142 142 141 141 141 141 
141 140 140 140 140 140 139 139 152 122 120 48 17 13 6 24 
86 145 142 139 139 139 138 138 138 138 138 138 138 138 138 137 
137 137 138 137 137 138 138 137 137 137 143 145 145 145 144 144 143 143 143 142 142 142 142 142 141 141 141 141 
141 140 140 140 140 140 139 140 140 146 117 44 72 116 134 150 
140 140 140 139 139 139 138 138 139 138 138 138 137 138 138 137 
138 138 137 137 138 137 137 137 137 137 143 145 145 144 144 144 143 143 143 142 142 142 142 142 141 141 141 141 
141 140 140 140 140 140 140 139 140 139 141 113 151 53 135 138 
139 139 139 139 138 139 139 138 139 138 138 138 138 138 137 137 
137 137 137 137 138 137 137 137 137 137 143 145 145 145 144 144 144 143 143 142 142 142 142 142 142 141 142 141 
141 141 141 140 140 140 139 140 140 138 141 132 138 82 133 130 
140 139 139 138 138 139 139 139 138 138 138 138 138 138 138 138 
138 138 137 137 137 137 137 137 137 137 143 145 144 145 144 144 144 143 143 142 142 142 142 142 141 141 141 141 
141 140 140 140 140 140 139 139 140 138 142 109 131 103 117 112 
142 139 139 139 138 139 138 138 138 138 138 138 138 137 137 137 
137 137 137 137 138 137 137 137 137 138 143 145 145 145 144 143 144 143 143 142 142 143 142 142 142 141 141 140 
141 140 140 140 140 140 139 140 140 140 141 114 163 71 22 87 
146 139 139 139 139 139 139 138 138 138 138 138 138 138 137 138 
138 137 137 137 137 137 137 137 138 137 143 145 145 145 144 144 143 143 143 142 142 142 142 142 142 141 141 141 
141 141 141 140 140 140 140 140 140 139 144 129 128 85 13 19 
137 141 139 139 139 139 138 138 138 138 138 138 138 138 138 138 
138 137 137 138 137 137 137 136 137 138 143 145 145 145 144 144 144 143 142 142 142 142 141 142 142 141 141 141 
141 141 140 141 140 140 140 140 140 140 148 121 121 78 11 17 
78 146 139 140 139 139 138 139 138 138 138 138 138 138 138 138 
138 137 137 137 137 137 137 136 136 137 143 145 145 145 144 144 144 143 143 142 142 142 142 142 142 141 141 142 
141 141 141 140 140 140 140 140 140 139 149 135 80 17 7 14 
5 125 140 139 139 139 139 139 139 138 138 138 138 138 138 138 
138 138 138 137 137 137 137 137 137 137 142 145 145 145 144 144 143 143 143 142 142 142 142 142 141 141 141 141 
141 141 140 141 140 140 140 140 139 139 149 48 10 12 8 32 
12 125 140 139 139 139 139 139 138 138 138 138 138 138 138 137 
138 138 137 138 137 137 137 137 137 137 142 145 145 145 144 144 143 143 143 143 142 142 142 142 142 142 141 141 
141 140 140 140 140 140 140 140 140 140 142 136 50 19 94 151 
148 143 139 139 139 139 139 139 139 138 138 138 138 138 138 137 
137 138 137 137 138 136 137 137 137 137 143 145 145 145 144 144 143 143 143 142 142 142 142 142 142 141 141 141 
141 141 140 141 141 141 140 140 140 140 140 142 147 148 144 141 
140 140 139 139 139 139 139 139 138 138 138 138 138 138 137 138 
138 137 137 138 137 137 137 138 136 137 143 145 145 145 144 144 143 143 142 143 142 142 142 142 142 142 142 141 
141 141 141 141 140 140 140 140 140 140 140 140 140 140 140 139 
139 140 139 139 139 139 139 138 139 138 138 138 138 138 138 137 
137 138 137 138 137 137 137 137 137 137 143 145 145 145 144 144 143 143 143 143 143 142 142 142 142 142 141 141 
141 141 141 141 141 140 140 140 140 140 140 140 139 139 139 139 
139 139 139 139 139 138 139 138 138 138 138 138 138 138 138 137 
137 137 137 138 138 137 137 137 137 137 142 145 145 144 144 144 143 143 142 143 142 142 142 142 142 142 141 141 
141 141 141 141 140 140 140 140 140 140 140 139 139 139 139 139 
139 139 139 139 139 139 139 138 138 138 138 138 138 138 138 137 
138 137 138 137 137 137 137 137 137 137 143 145 145 145 144 144 143 143 142 143 142 142 142 142 142 142 141 141 
141 141 141 141 140 141 140 140 140 139 139 139 139 139 139 139 
139 139 139 139 139 139 139 139 138 138 138 138 138 138 138 137 
137 137 137 137 137 137 137 137 137 137 143 145 145 145 144 144 143 143 142 143 142 142 142 142 142 142 142 141 
141 141 141 141 141 140 140 141 140 140 140 139 139 139 139 139 
139 139 139 139 139 139 139 139 138 138 138 138 138 138 138 138 
138 137 138 138 137 138 137 137 137 137 143 145 145 144 144 144 143 143 143 142 142 142 142 142 142 142 142 142 
141 142 141 141 140 141 140 140 140 140 140 139 139 139 139 139 
139 139 139 138 139 139 139 139 138 138 138 138 138 138 138 137 
137 137 138 138 137 137 138 137 137 138 143 145 145 144 144 143 143 143 142 142 142 142 142 142 143 141 142 141 
141 141 141 141 141 140 140 140 140 140 139 139 139 139 139 139 
139 139 138 139 139 138 138 139 138 138 138 138 138 138 137 137 
137 137 137 138 138 137 137 137 137 137 143 145 145 144 144 143 143 143 143 142 142 142 142 142 142 142 142 142 
142 141 141 141 141 140 140 140 140 140 140 140 139 139 139 139 
139 139 139 138 139 139 138 139 139 139 138 138 138 138 138 137 
137 138 137 137 137 137 137 137 138 137 143 145 145 144 144 143 143 142 142 142 142 142 142 142 142 142 141 141 
142 141 141 141 141 140 141 141 140 140 140 140 140 139 139 139 
139 139 139 139 139 138 139 139 138 138 138 138 138 138 138 137 
138 137 137 137 138 137 137 137 137 137 143 145 145 144 144 144 143 143 143 143 142 142 142 142 142 142 142 142 
142 142 141 141 141 140 140 140 140 140 140 140 139 139 139 139 
139 139 139 139 138 139 139 139 139 138 138 138 138 137 137 138 
138 137 138 137 137 137 137 137 137 137 143 145 145 144 144 143 143 143 143 143 143 142 142 142 142 142 142 142 
141 141 141 141 141 141 140 140 140 140 140 140 139 139 139 139 
139 139 139 139 139 139 138 139 139 139 138 138 138 138 138 137 
137 137 137 137 138 137 137 137 137 138 143 145 143 144 144 143 143 143 143 142 142 142 142 142 142 142 142 142 
141 141 141 141 141 141 140 140 140 140 139 139 139 139 139 139 
139 139 139 139 139 139 138 139 138 138 138 138 138 138 138 138 
137 137 137 137 137 137 137 137 137 137 143 
