P2
56 86
255
134 134 134 133 133 133 133 133 133 133 132 132 132 132 132 132 132 130 127 121 115 110 107 107 111 115 117 117 116 113 109 108 109 110 113 116 120 124 126 128 128 128 128 129 133 141 152 165 180 194 206 215 223 229 234 237 
135 134 134 134 134 133 133 133 133 133 133 133 133 132 133 133 132 127 119 109 98 90 86 88 94 100 103 105 105 102 98 95 94 95 98 103 110 116 122 126 128 129 129 130 135 142 152 164 177 189 199 208 216 222 228 232 
135 135 134 134 134 133 133 133 133 133 133 132 131 131 131 129 125 118 106 91 78 70 66 67 73 80 86 89 89 87 83 80 79 80 83 88 95 104 112 119 124 127 128 131 135 142 151 161 172 182 191 199 207 213 219 225 
135 135 135 134 134 134 134 134 133 132 130 127 125 125 125 123 117 106 90 73 59 49 45 47 53 60 66 70 71 69 66 64 62 63 66 72 80 91 100 108 113 117 119 123 129 137 146 156 165 173 180 187 194 201 208 215 
136 135 135 135 134 134 134 133 131 127 122 117 114 115 116 113 106 93 75 58 45 38 35 37 40 44 47 52 56 57 57 57 55 54 55 58 65 75 85 93 100 103 105 108 115 125 136 146 154 161 167 174 183 190 197 205 
136 135 135 135 135 135 134 131 125 117 108 102 99 103 106 104 97 83 65 48 38 32 31 32 34 35 39 42 44 46 46 45 43 42 43 45 50 59 70 77 85 91 95 99 107 115 125 133 141 148 156 164 173 179 185 193 
136 136 135 135 135 133 129 122 112 100 90 82 81 88 93 93 88 76 58 44 37 33 33 33 33 33 33 34 35 36 37 38 38 38 39 40 42 47 55 62 70 78 85 92 100 108 116 125 133 141 150 159 166 171 176 182 
136 136 136 136 134 130 123 112 98 84 72 64 65 76 84 86 85 75 58 47 41 38 39 39 38 36 32 31 30 30 31 34 34 34 34 35 37 41 46 51 59 68 76 84 94 102 110 120 129 137 148 159 166 170 173 176 
136 136 136 136 134 127 117 103 85 70 58 51 54 69 79 85 88 81 65 55 50 47 47 48 48 45 39 35 31 28 27 30 31 31 32 32 33 36 40 44 52 61 68 76 86 93 101 112 123 134 147 161 169 172 173 172 
137 136 137 138 134 126 113 95 75 60 49 44 48 67 81 90 96 91 75 64 58 55 56 57 57 55 46 39 34 30 27 31 33 34 34 35 35 36 38 41 48 58 67 77 85 90 96 105 116 129 145 161 170 172 172 169 
137 138 141 141 136 125 108 88 69 55 47 43 46 67 83 94 103 102 84 73 65 62 63 64 64 63 53 45 39 33 29 33 35 36 36 36 37 37 38 39 46 54 62 72 80 86 92 100 112 125 141 158 169 172 170 166 
140 144 147 148 142 128 110 89 71 59 53 49 50 72 89 101 109 111 93 81 74 70 72 74 74 72 61 52 43 37 32 36 38 39 39 39 39 39 39 39 42 48 53 59 66 74 82 92 105 120 136 153 164 169 168 164 
146 150 155 156 148 134 117 97 80 69 63 59 57 77 94 106 116 122 106 95 88 85 86 88 89 89 77 66 56 46 39 43 45 46 46 46 45 44 44 41 41 42 44 46 51 59 69 81 97 116 133 148 159 163 163 159 
149 153 161 160 153 141 126 105 90 79 72 68 64 81 98 112 122 131 119 107 98 94 95 97 98 99 87 76 65 55 46 48 51 52 52 52 51 51 50 47 43 42 42 42 46 53 63 77 93 113 130 141 149 154 154 152 
152 157 165 164 158 150 136 115 99 87 80 75 70 84 102 116 128 139 130 117 109 105 105 107 108 109 97 84 73 62 52 54 56 57 58 58 57 57 57 53 48 45 42 39 40 47 60 75 92 113 130 138 142 147 147 145 
153 157 164 164 160 156 146 124 108 97 90 88 85 93 112 125 135 145 142 128 120 115 115 116 117 117 106 93 81 70 60 61 64 64 64 63 63 63 63 60 53 47 41 36 34 40 54 71 90 112 131 138 139 141 140 138 
148 149 157 159 158 162 156 137 122 111 105 102 99 102 119 132 142 150 151 137 126 120 117 117 118 119 110 99 90 81 72 74 77 77 77 76 75 74 72 68 59 51 44 37 34 37 51 69 89 110 131 137 136 134 134 132 
140 139 147 151 156 168 165 147 133 122 115 112 110 109 125 138 146 150 152 136 123 115 112 112 112 113 106 98 92 86 80 83 86 86 86 86 86 85 84 78 67 57 48 39 35 38 50 66 83 102 122 129 128 127 128 126 
137 134 141 147 156 173 174 158 144 133 125 121 120 117 127 138 143 144 146 133 119 110 107 106 107 107 101 96 93 90 88 92 95 96 96 96 95 95 95 88 76 65 53 42 37 39 47 59 73 87 105 115 117 119 123 123 
136 127 134 144 157 178 184 170 156 144 135 130 127 121 124 133 137 136 138 130 115 106 101 101 101 101 97 94 94 95 95 101 105 105 105 105 105 105 105 96 84 72 59 46 41 41 45 53 62 72 88 98 103 108 116 120 
137 120 128 142 158 181 195 182 166 152 139 130 125 118 115 123 128 127 129 124 110 101 97 98 100 102 99 97 97 97 98 103 107 110 111 113 114 114 115 104 90 77 64 50 47 45 46 50 54 60 73 82 91 98 110 116 
141 120 126 141 160 184 202 190 170 152 136 125 120 114 107 112 118 119 121 124 116 108 106 107 110 112 109 104 101 98 95 98 102 104 106 109 113 116 119 108 95 82 68 54 52 51 49 49 50 52 60 69 78 89 101 112 
147 124 126 143 163 184 203 194 171 150 133 121 114 109 103 108 117 121 125 131 126 118 115 117 119 122 118 110 104 99 93 94 98 100 102 104 107 111 114 106 95 84 72 59 58 57 56 53 51 48 50 56 65 77 91 105 
152 129 126 143 162 181 199 195 172 149 130 116 111 110 106 111 122 129 132 138 136 128 125 126 128 131 127 116 107 99 91 89 93 95 97 100 103 106 109 103 96 87 77 68 68 67 66 64 60 55 52 52 56 66 79 95 
158 136 129 142 159 175 192 193 172 148 130 118 114 117 116 119 129 136 139 144 146 139 135 135 138 141 136 123 112 100 88 84 87 89 92 94 98 101 103 100 96 90 84 79 79 79 79 77 71 62 55 51 51 57 69 87 
164 146 135 143 157 171 184 190 175 155 138 128 124 126 127 128 136 144 147 151 154 149 144 143 143 145 140 128 118 108 98 93 96 95 95 94 95 96 97 97 96 94 91 91 93 94 95 92 82 68 57 48 45 50 60 80 
171 158 146 147 157 169 179 189 182 165 150 140 135 135 138 139 144 152 153 154 156 152 145 143 143 145 140 131 123 115 106 103 105 105 105 104 104 102 100 100 100 99 100 103 106 109 110 105 91 73 57 45 39 43 53 74 
179 169 157 152 158 167 177 188 190 179 164 153 147 145 146 145 147 152 152 153 154 152 145 143 142 144 141 133 127 121 114 112 114 115 115 115 115 111 107 106 105 104 108 114 119 123 123 114 97 77 58 43 37 39 49 71 
186 179 169 160 159 167 175 186 195 192 179 167 158 152 150 148 147 150 150 151 151 151 146 144 141 144 141 136 131 127 122 121 123 124 124 125 126 120 113 109 105 102 110 118 126 132 133 119 99 77 57 41 36 37 48 70 
193 188 181 170 162 165 173 184 197 202 193 179 166 156 151 149 146 148 148 149 148 149 145 143 140 143 141 137 135 132 129 129 132 134 135 135 136 127 119 111 104 98 106 115 125 133 135 121 99 76 55 39 35 37 48 70 
199 196 191 179 165 161 168 180 195 206 202 186 171 159 152 150 146 146 146 147 145 146 144 143 140 142 141 137 134 132 129 130 133 136 139 142 144 134 123 112 102 94 100 108 118 127 128 115 97 76 54 40 37 37 48 70 
203 201 197 185 167 157 161 173 188 204 205 193 177 163 153 150 147 145 144 145 143 143 143 142 139 141 140 137 134 132 129 130 134 137 139 143 144 134 122 110 98 89 93 101 109 117 118 107 93 75 56 43 40 39 49 70 
204 202 200 189 169 154 154 166 181 198 207 199 182 167 155 151 147 145 143 143 142 141 141 141 139 140 140 137 134 132 130 131 134 137 140 143 143 134 124 111 98 89 90 94 100 107 106 98 87 73 57 47 44 41 50 71 
202 202 200 191 173 156 152 161 176 193 206 203 189 172 159 152 148 145 143 142 141 140 140 140 139 139 139 136 134 132 130 131 135 137 140 143 141 134 126 116 105 95 92 92 94 98 97 91 84 74 61 53 48 43 52 71 
198 200 198 191 178 163 155 161 175 190 203 205 195 178 164 153 149 145 143 141 141 138 138 138 139 137 137 135 133 131 130 130 134 137 140 142 140 136 130 122 113 106 100 96 94 95 93 89 84 77 67 59 53 48 57 74 
192 197 196 191 183 173 164 166 176 189 200 205 198 184 168 156 150 145 143 140 141 137 137 137 138 136 136 133 133 131 129 130 134 136 139 140 139 137 134 129 123 118 112 105 100 99 95 92 87 82 74 66 58 54 65 81 
186 193 193 191 188 185 178 175 179 189 197 202 200 190 174 160 152 146 142 139 141 137 136 136 137 135 135 132 132 130 129 129 133 136 138 139 138 139 138 136 134 132 127 117 110 106 102 97 94 88 81 73 64 61 74 88 
181 191 192 194 195 196 191 186 185 189 195 199 200 194 181 165 154 148 142 139 141 137 136 135 136 134 134 131 131 130 128 129 132 135 138 137 137 139 139 140 142 143 139 128 118 112 107 102 102 97 90 81 71 70 83 96 
177 189 193 197 203 205 202 197 190 189 192 196 198 195 186 171 158 150 144 139 140 138 135 135 136 134 133 131 131 130 129 129 132 135 137 136 138 140 141 142 147 149 147 136 125 116 109 105 106 103 98 90 81 82 94 105 
173 186 194 201 209 212 210 206 196 190 190 194 196 195 189 177 163 153 146 140 139 138 136 135 136 134 133 131 131 131 130 130 133 136 137 136 138 141 142 145 150 153 150 139 127 117 108 105 108 107 105 98 92 95 104 113 
169 184 194 203 212 215 214 211 202 192 189 192 194 193 190 182 168 157 149 143 140 139 137 135 135 135 132 130 130 131 130 130 133 136 136 136 139 142 144 148 153 155 150 139 126 114 104 102 105 108 109 104 102 106 112 120 
166 180 193 203 213 215 214 213 207 197 190 190 192 191 190 185 174 161 153 146 141 139 137 135 134 135 131 129 129 131 130 129 133 136 135 135 140 143 145 150 155 155 149 137 123 109 99 97 100 106 111 109 111 116 121 126 
160 175 188 199 210 213 213 213 210 202 193 190 191 190 188 185 178 165 156 149 142 140 137 134 133 134 130 127 127 131 129 129 132 134 133 134 138 142 145 151 155 155 149 137 121 107 96 92 95 103 111 113 118 124 127 131 
154 167 180 192 203 209 212 213 212 208 198 192 191 191 187 184 180 170 159 151 145 141 136 134 131 133 128 126 126 130 129 128 131 132 131 132 137 139 144 149 153 153 148 137 121 108 97 91 92 102 110 115 123 130 131 134 
149 159 171 182 193 203 210 213 214 213 204 196 192 191 187 182 180 173 162 153 147 143 137 132 127 125 117 111 110 113 114 117 123 126 128 131 135 137 142 146 150 150 147 138 124 114 103 95 94 104 109 117 126 133 134 137 
145 151 161 172 182 196 206 213 216 216 210 201 194 191 189 182 179 175 166 155 147 139 128 118 108 104 96 91 90 93 94 97 103 108 115 123 130 135 141 144 146 147 146 140 129 122 112 102 101 109 112 120 130 135 136 137 
142 146 152 161 171 188 201 212 218 220 215 207 198 194 191 185 178 175 168 154 140 129 115 99 88 84 77 71 70 72 74 78 84 90 101 114 126 136 143 146 145 145 144 140 133 130 121 112 111 116 117 125 132 136 136 137 
142 143 146 152 161 177 194 207 217 224 219 212 204 197 193 188 179 170 162 148 128 114 101 83 68 63 57 51 50 52 55 61 68 77 91 109 124 138 147 150 148 146 143 141 137 137 131 125 122 125 124 129 134 136 136 137 
142 142 143 146 152 166 183 199 213 223 222 216 209 201 195 189 179 163 151 138 116 97 87 69 50 42 37 31 30 32 36 44 53 66 85 106 125 143 153 156 153 149 145 142 141 143 138 133 131 131 129 132 136 136 136 137 
142 142 142 143 146 156 170 188 204 218 223 220 212 205 196 186 174 155 138 125 105 83 73 56 37 27 26 22 23 24 29 36 44 59 80 103 126 146 159 162 158 153 149 145 144 144 140 138 136 135 133 135 136 136 136 137 
143 142 142 141 142 149 159 174 192 209 219 220 215 207 195 181 168 148 125 111 97 77 66 56 37 24 21 17 17 21 27 36 47 62 82 105 126 145 158 163 161 155 152 147 145 144 141 139 138 137 136 137 136 136 136 137 
143 143 142 142 141 143 150 162 177 196 211 216 212 205 189 172 157 138 113 102 92 75 64 56 39 22 17 13 13 17 26 36 47 64 82 101 120 136 148 155 155 153 152 149 145 143 141 139 138 137 137 137 137 137 137 138 
143 143 142 142 142 141 144 152 164 179 197 207 205 199 182 160 145 131 109 97 92 77 63 54 41 23 13 8 8 14 23 33 45 60 76 92 108 120 131 141 145 147 150 150 145 142 140 138 138 137 137 137 137 137 137 138 
143 143 143 142 142 141 141 146 153 165 179 194 196 192 178 157 139 129 110 95 92 80 63 53 42 24 12 4 3 10 20 30 41 56 67 80 92 102 112 125 135 140 147 150 145 140 138 137 137 137 137 137 137 137 137 138 
144 143 143 142 142 142 141 142 146 154 164 176 183 182 171 157 139 129 114 98 89 82 66 53 45 33 20 16 20 27 34 42 47 52 58 66 76 84 95 112 126 135 145 149 143 139 138 137 137 137 137 137 137 137 137 138 
144 143 143 143 142 142 142 141 142 146 153 162 168 170 164 155 141 130 119 104 89 82 72 57 48 40 26 19 21 27 35 43 47 50 54 57 64 72 85 105 122 133 143 147 142 138 137 137 137 137 137 137 137 137 137 138 
144 143 143 143 142 142 142 142 141 142 145 151 157 160 160 155 145 133 124 110 95 87 79 65 53 44 30 22 21 25 31 41 47 49 53 56 61 70 85 106 125 136 143 145 140 138 137 137 137 137 137 137 137 137 137 138 
144 143 143 143 142 142 142 142 141 141 141 144 149 153 157 156 148 139 129 117 102 91 82 71 56 47 35 27 23 24 28 41 52 58 63 68 73 80 94 114 131 139 143 143 139 138 137 137 137 137 137 137 137 137 137 138 
144 144 143 143 142 142 142 142 142 141 141 141 143 146 148 151 147 140 134 127 109 99 88 76 61 50 38 32 27 22 28 46 62 71 80 87 90 94 106 123 136 141 143 141 138 138 137 137 137 137 137 137 137 137 137 138 
144 143 143 143 142 142 142 142 142 142 141 141 141 142 143 146 145 140 137 132 117 107 93 81 67 51 35 26 14 6 17 39 62 81 96 103 106 110 119 131 139 142 141 139 138 138 138 137 137 137 137 137 137 137 137 138 
144 144 143 143 143 142 142 142 142 142 141 141 141 141 141 143 143 140 139 136 125 116 99 85 74 56 38 29 17 8 17 37 63 87 104 116 122 126 129 136 141 141 139 138 138 138 138 137 137 137 137 137 137 137 137 138 
144 144 143 143 143 142 142 142 142 142 142 141 141 141 141 141 141 141 139 137 131 123 108 94 84 64 44 32 21 10 20 42 69 96 115 130 136 136 135 139 140 139 138 138 138 138 138 137 137 137 137 137 137 137 137 138 
144 144 143 143 143 142 142 142 142 142 142 141 141 141 141 141 141 141 140 139 135 132 120 107 96 74 49 34 22 15 30 52 78 103 122 134 139 139 139 139 138 138 138 138 138 138 138 137 137 137 137 137 137 137 137 138 
144 144 143 143 143 142 142 142 142 142 142 141 141 141 141 141 140 140 140 138 137 136 129 118 105 84 62 47 39 39 54 70 89 109 124 132 138 140 139 138 138 138 138 138 138 138 138 138 137 137 137 137 137 137 137 138 
144 144 144 143 143 143 142 142 142 142 142 141 141 141 141 141 140 140 140 140 140 139 136 128 115 98 78 64 58 62 70 86 101 116 126 134 139 139 138 138 138 138 138 138 138 138 138 137 137 137 137 137 137 137 137 138 
144 144 144 143 143 143 142 142 142 142 142 141 141 141 141 141 140 140 140 140 141 140 139 136 123 110 93 83 78 83 91 107 119 127 134 138 139 139 138 138 138 138 138 138 138 138 138 137 137 137 137 137 137 137 137 138 
144 144 144 143 143 143 142 142 142 142 142 141 141 141 141 141 140 140 140 140 140 140 140 138 128 120 107 100 96 104 112 125 132 137 139 139 139 138 138 138 138 138 138 138 138 138 137 137 137 137 137 137 137 137 137 138 
144 144 144 143 143 143 142 142 142 142 142 142 141 141 141 141 140 140 140 140 140 140 140 139 132 130 119 113 110 118 119 130 136 139 139 139 139 139 138 138 138 138 138 138 138 138 138 137 137 137 137 137 137 137 137 138 
144 144 144 143 143 143 142 142 142 142 142 142 141 141 141 141 141 140 140 140 140 140 140 140 136 136 124 113 104 109 108 120 131 139 139 139 139 138 138 138 138 138 138 138 138 138 138 137 137 137 137 137 137 137 137 138 
145 144 144 143 143 143 142 142 142 142 142 142 141 141 141 141 141 140 140 140 140 140 140 140 137 136 125 109 95 96 97 108 124 137 139 139 139 138 138 138 138 138 138 138 138 138 138 137 137 137 137 137 137 137 137 138 
145 144 144 143 143 143 142 142 142 142 142 142 141 141 141 141 141 140 140 140 140 140 140 141 137 134 120 99 80 76 79 93 114 131 139 139 139 139 138 138 138 138 138 138 138 138 138 138 137 137 137 137 137 137 137 138 
145 144 144 143 143 143 142 142 142 142 142 142 141 141 141 141 141 141 140 140 140 140 140 141 135 127 110 84 62 55 62 79 105 126 138 139 139 139 138 138 138 138 138 138 138 138 138 138 138 137 137 137 137 137 137 138 
145 144 144 143 143 143 142 142 142 142 142 142 141 141 141 141 141 141 140 140 140 140 140 141 136 123 104 81 61 54 65 85 107 126 139 139 139 139 139 138 138 138 138 138 138 138 138 138 138 137 137 137 137 137 137 138 
145 144 144 143 143 143 142 142 142 142 142 142 141 141 141 141 141 141 140 140 140 140 140 141 136 125 108 90 75 67 78 95 112 126 138 139 139 139 139 138 138 138 138 138 138 138 138 138 138 137 137 137 137 137 137 138 
145 144 144 143 143 143 142 142 142 142 142 142 142 141 141 141 141 141 140 140 140 140 140 141 137 126 111 99 89 83 93 107 119 128 138 139 139 139 139 138 138 138 138 138 138 138 138 138 138 137 137 137 137 137 137 138 
145 144 144 143 143 143 143 142 142 142 142 142 142 141 141 141 141 141 141 140 140 140 140 140 137 128 118 111 107 106 114 124 130 134 139 139 139 139 139 138 138 138 138 138 138 138 138 137 137 137 137 137 137 137 137 138 
145 144 144 143 143 143 143 142 142 142 142 142 142 141 141 141 141 141 141 140 140 140 140 140 140 137 132 130 130 131 134 139 140 140 139 139 139 139 139 138 138 138 138 138 138 138 138 137 137 137 137 137 137 137 137 138 
145 144 144 143 143 143 142 142 142 142 142 142 142 141 141 141 141 141 141 141 140 140 140 140 140 140 140 140 140 140 140 139 139 139 139 139 139 139 138 138 138 138 138 138 138 138 138 137 137 137 137 137 137 137 137 138 
145 144 144 143 143 143 142 142 142 142 142 142 142 141 141 141 141 141 141 141 140 140 140 140 140 140 139 139 139 139 139 139 139 139 139 139 139 139 138 138 138 138 138 138 138 138 138 137 137 137 137 137 137 137 137 138 
145 144 144 143 143 143 142 142 142 142 142 142 142 142 141 141 141 141 141 141 140 140 140 140 140 140 139 139 139 139 139 139 139 139 139 139 139 139 138 138 138 138 138 138 138 138 138 137 137 137 137 137 137 137 137 138 
144 144 144 143 143 143 142 142 142 142 142 142 142 142 141 141 141 141 141 141 140 140 140 140 140 139 139 139 139 139 139 139 139 139 139 139 139 139 138 138 138 138 138 138 138 138 137 137 137 137 137 137 137 137 137 138 
144 144 144 143 143 143 142 142 142 142 142 142 142 142 141 141 141 141 141 141 140 140 140 140 140 140 139 139 139 139 139 139 139 139 139 139 139 139 139 138 138 138 138 138 138 138 137 137 137 137 137 137 137 137 137 138 
144 144 143 143 143 142 142 142 142 142 142 142 142 142 142 141 141 141 141 141 141 140 140 140 140 140 139 139 139 139 139 139 139 139 139 139 139 139 139 138 138 138 138 138 138 138 138 137 137 137 137 137 137 137 137 138 
144 144 143 143 143 143 142 142 142 142 142 142 142 142 142 141 141 141 141 141 140 140 140 140 140 140 140 139 139 139 139 139 139 139 139 139 139 139 139 138 138 138 138 138 138 138 137 137 137 137 137 137 137 137 137 138 
144 144 143 143 143 143 142 142 142 142 142 142 142 142 142 141 141 141 141 141 141 140 140 140 140 140 140 139 139 139 139 139 139 139 139 139 139 139 139 138 138 138 138 138 138 138 137 137 137 137 137 137 137 137 137 138 
144 144 143 143 143 143 142 142 142 142 142 142 142 142 142 141 141 141 141 141 141 140 140 140 140 140 140 139 139 139 139 139 139 139 139 139 139 139 139 138 138 138 138 138 138 138 138 137 137 137 137 137 137 137 137 138 
